<svg width="24" height="24" viewBox="0 0 24 24" fill="none" xmlns="http://www.w3.org/2000/svg">
<g clip-path="url(#clip0_16960_60384)">
<path fill-rule="evenodd" clip-rule="evenodd" d="M12.0003 0C7.58188 -2.50339e-06 4.0003 3.58259 4.0003 8.00074V10.8268L2.62033 14.6907C2.4703 15.1107 2.33925 15.4776 2.25518 15.7841C2.16823 16.1012 2.09998 16.458 2.15169 16.8375C2.26146 17.6431 2.75608 18.345 3.47778 18.7193C3.81781 18.8956 4.17681 18.9514 4.50462 18.9761C4.82158 19 5.21119 19 5.6572 19L8.00029 19C8.00029 21.2091 9.79115 23 12.0003 23C14.2094 23 16.0003 21.2091 16.0003 19L18.3434 19C18.7894 19 19.179 19 19.496 18.9761C19.8238 18.9514 20.1828 18.8956 20.5228 18.7193C21.2445 18.345 21.7391 17.6431 21.8489 16.8375C21.9006 16.458 21.8324 16.1012 21.7454 15.7841C21.6613 15.4776 21.5303 15.1107 21.3802 14.6906L20.0003 10.8268V8.00074C20.0003 3.5826 16.4187 2.5034e-06 12.0003 0ZM14.0003 19H10.0003C10.0003 20.1046 10.8957 21 12.0003 21C13.1049 21 14.0003 20.1046 14.0003 19ZM18.3075 17C18.7999 17 19.113 16.9993 19.3454 16.9818C19.5344 16.9675 19.5963 16.9458 19.604 16.9428C19.7472 16.8677 19.8454 16.7279 19.8672 16.5675C19.8649 16.5845 19.8777 16.5357 19.8166 16.3131C19.755 16.0883 19.6503 15.7933 19.4847 15.3296L18.0664 11.3584C18.0255 11.2438 18.0003 11.1159 18.0003 10.9776V8.00074C18.0003 4.68689 15.3139 2 12.0003 2C8.68673 2 6.0003 4.68689 6.0003 8.00074V10.9776C6.0003 11.1159 5.97507 11.2438 5.93415 11.3584L4.51588 15.3296C4.35027 15.7933 4.24561 16.0883 4.18395 16.3131C4.13383 16.4959 4.13349 16.5615 4.13369 16.5697C4.15613 16.7292 4.25401 16.8681 4.39663 16.9428C4.40427 16.9458 4.46618 16.9675 4.65515 16.9818C4.88761 16.9993 5.20066 17 5.69306 17H18.3075Z" fill="black"/>
</g>
<defs>
<clipPath id="clip0_16960_60384">
<rect width="24" height="24" fill="white"/>
</clipPath>
</defs>
</svg>
