<svg width="24" height="24" viewBox="0 0 24 24" fill="none" xmlns="http://www.w3.org/2000/svg">
<g clip-path="url(#clip0_16960_51571)">
<path d="M16.2414 1H7.75877C6.95381 0.999988 6.28944 0.999978 5.74825 1.04419C5.18615 1.09012 4.66945 1.18868 4.18411 1.43598C3.43146 1.81947 2.81954 2.43139 2.43605 3.18404C2.18876 3.66937 2.09019 4.18608 2.04427 4.74818C2.00005 5.28937 2.00006 5.95373 2.00007 6.7587L2.00004 13.2488C1.99971 13.9415 1.99947 14.4554 2.10361 14.9042C2.44857 16.3908 3.60932 17.5515 5.09588 17.8965C5.36554 17.959 5.65873 17.9839 6.00007 17.9938L6.00006 21.6624C6 21.7766 5.99992 21.9214 6.01112 22.0453C6.02121 22.1568 6.05239 22.4689 6.27962 22.7488C6.52259 23.0481 6.89007 23.2186 7.2755 23.2107C7.63595 23.2034 7.89432 23.0256 7.98599 22.9612C8.08785 22.8897 8.19833 22.7961 8.28543 22.7224L13.6986 18.142C13.7874 18.0668 13.8316 18.0297 13.8647 18.0039L13.8671 18.0021L13.8702 18.0019C13.9122 18.0002 13.9699 18 14.0862 18H16.2414C17.0464 18 17.7107 18 18.2519 17.9558C18.814 17.9099 19.3307 17.8113 19.816 17.564C20.5687 17.1805 21.1806 16.5686 21.5641 15.816C21.8114 15.3306 21.91 14.8139 21.9559 14.2518C22.0001 13.7106 22.0001 13.0463 22.0001 12.2413V6.75868C22.0001 5.95372 22.0001 5.28937 21.9559 4.74818C21.91 4.18608 21.8114 3.66937 21.5641 3.18404C21.1806 2.43139 20.5687 1.81947 19.816 1.43598C19.3307 1.18868 18.814 1.09012 18.2519 1.04419C17.7107 0.999978 17.0463 0.999988 16.2414 1Z" fill="#248BF2"/>
</g>
<defs>
<clipPath id="clip0_16960_51571">
<rect width="24" height="24" fill="white"/>
</clipPath>
</defs>
</svg>
