<svg width="12" height="15" viewBox="0 0 12 15" fill="none" xmlns="http://www.w3.org/2000/svg">
<path fill-rule="evenodd" clip-rule="evenodd" d="M4.61035 2.99952C4.2659 3.30374 4 3.77762 4 4.5V6.5H8V4.5C8 3.19396 6.92002 2.5 6 2.5C5.48073 2.5 4.97406 2.6783 4.61035 2.99952ZM10 6.5V4.5C10 1.80604 7.71814 0.5 6 0.5C5.04828 0.5 4.05495 0.821699 3.2864 1.50048C2.4986 2.19626 2 3.22238 2 4.5V6.5C0.89543 6.5 0 7.39543 0 8.5V12.5C0 13.6046 0.89543 14.5 2 14.5H10C11.1046 14.5 12 13.6046 12 12.5V8.5C12 7.39543 11.1046 6.5 10 6.5Z" fill="#40B855"/>
</svg>
