<svg width="24" height="24" viewBox="0 0 24 24" fill="none" xmlns="http://www.w3.org/2000/svg">
<g clip-path="url(#clip0_16960_13763)">
<circle cx="12" cy="10.5" r="3.5" stroke="black" stroke-width="2" stroke-linecap="round" stroke-linejoin="round"/>
<path fill-rule="evenodd" clip-rule="evenodd" d="M12.0001 6C9.51484 6 7.50012 8.01472 7.50012 10.5C7.50012 12.9853 9.51484 15 12.0001 15C14.4854 15 16.5001 12.9853 16.5001 10.5C16.5001 8.01472 14.4854 6 12.0001 6ZM9.50012 10.5C9.50012 9.11929 10.6194 8 12.0001 8C13.3808 8 14.5001 9.11929 14.5001 10.5C14.5001 11.8807 13.3808 13 12.0001 13C10.6194 13 9.50012 11.8807 9.50012 10.5Z" fill="#71747A"/>
<path fill-rule="evenodd" clip-rule="evenodd" d="M12 0.5C6.47109 0.5 2 5.00926 2 10.5581C2 17.5466 8.05965 21.2173 10.4744 22.4129L10.5012 22.4262C10.7862 22.5674 11.0412 22.6938 11.4514 22.7701C11.6314 22.8036 11.837 22.813 12 22.813C12.163 22.813 12.3686 22.8036 12.5486 22.7701C12.9588 22.6938 13.2138 22.5674 13.4988 22.4262L13.5256 22.4129C15.9403 21.2173 22 17.5466 22 10.5581C22 5.00926 17.5289 0.5 12 0.5ZM4 10.5581C4 6.10167 7.58778 2.5 12 2.5C16.4122 2.5 20 6.10167 20 10.5581C20 16.2715 15.0068 19.4478 12.6381 20.6206C12.3432 20.7666 12.3057 20.7809 12.1829 20.8038C12.1837 20.8036 12.1839 20.8037 12.1829 20.8038C12.1791 20.8043 12.162 20.8066 12.13 20.8088C12.0929 20.8114 12.0479 20.813 12 20.813C11.9521 20.813 11.9071 20.8114 11.87 20.8088C11.838 20.8066 11.8211 20.8043 11.8174 20.8038C11.8164 20.8037 11.8165 20.8036 11.8174 20.8038C11.6945 20.7809 11.6568 20.7666 11.3619 20.6206C8.99325 19.4478 4 16.2715 4 10.5581Z" fill="#71747A"/>
</g>
<defs>
<clipPath id="clip0_16960_13763">
<rect width="24" height="24" fill="white"/>
</clipPath>
</defs>
</svg>
