<svg width="18" height="18" viewBox="0 0 18 18" fill="none" xmlns="http://www.w3.org/2000/svg">
<path fill-rule="evenodd" clip-rule="evenodd" d="M9 0.875C9.46024 0.875 9.83333 1.2481 9.83333 1.70833V8.16667H16.2917C16.7519 8.16667 17.125 8.53976 17.125 9C17.125 9.46024 16.7519 9.83333 16.2917 9.83333H9.83333V16.2917C9.83333 16.7519 9.46024 17.125 9 17.125C8.53976 17.125 8.16667 16.7519 8.16667 16.2917V9.83333H1.70833C1.2481 9.83333 0.875 9.46024 0.875 9C0.875 8.53976 1.2481 8.16667 1.70833 8.16667H8.16667V1.70833C8.16667 1.2481 8.53976 0.875 9 0.875Z" fill="white"/>
</svg>
