<svg width="24" height="24" viewBox="0 0 24 24" fill="none" xmlns="http://www.w3.org/2000/svg">
<g clip-path="url(#clip0_16960_17742)">
<path fill-rule="evenodd" clip-rule="evenodd" d="M12 0.5C9.37665 0.5 7.25 2.62665 7.25 5.25C7.25 7.87335 9.37665 10 12 10C14.6234 10 16.75 7.87335 16.75 5.25C16.75 2.62665 14.6234 0.5 12 0.5ZM9.25 5.25C9.25 3.73122 10.4812 2.5 12 2.5C13.5188 2.5 14.75 3.73122 14.75 5.25C14.75 6.76878 13.5188 8 12 8C10.4812 8 9.25 6.76878 9.25 5.25Z" fill="#71747A"/>
<path d="M1.5 18.5C1.5 16.2774 4.13498 12 12 12C12.5523 12 13 12.4477 13 13C13 13.5523 12.5523 14 12 14C4.86502 14 3.5 17.7226 3.5 18.5C3.5 19.0228 3.66989 19.3807 3.89461 19.6054C4.11933 19.8301 4.47725 20 5 20H11C11.5523 20 12 20.4477 12 21C12 21.5523 11.5523 22 11 22H5C4.02275 22 3.13067 21.6699 2.48039 21.0196C1.83011 20.3693 1.5 19.4772 1.5 18.5Z" fill="#71747A"/>
<path d="M18.5 13C19.0523 13 19.5 13.4477 19.5 14V16.5H22C22.5523 16.5 23 16.9477 23 17.5C23 18.0523 22.5523 18.5 22 18.5H19.5V21C19.5 21.5523 19.0523 22 18.5 22C17.9477 22 17.5 21.5523 17.5 21V18.5H15C14.4477 18.5 14 18.0523 14 17.5C14 16.9477 14.4477 16.5 15 16.5H17.5V14C17.5 13.4477 17.9477 13 18.5 13Z" fill="#71747A"/>
</g>
<defs>
<clipPath id="clip0_16960_17742">
<rect width="24" height="24" fill="white"/>
</clipPath>
</defs>
</svg>
